<svg width="33" height="33" viewBox="0 0 33 33" fill="none" xmlns="http://www.w3.org/2000/svg">
<path d="M17.6623 5.79818V8.16181C19.589 8.42226 21.3766 9.30896 22.7497 10.6853C24.1229 12.0617 25.0054 13.8513 25.2614 15.7786H27.625C27.3548 13.2271 26.2188 10.845 24.4061 9.02909C22.5934 7.21315 20.2134 6.0729 17.6623 5.79818ZM5.3182 15.7786H7.68183C7.94228 13.852 8.82898 12.0643 10.2053 10.6912C11.5817 9.31803 13.3714 8.4355 15.2986 8.17954V5.8159C12.7471 6.0861 10.365 7.22211 8.54911 9.03482C6.73317 10.8475 5.59292 13.2275 5.3182 15.7786ZM25.2614 18.1423C25.0018 20.0663 24.1177 21.852 22.7448 23.2248C21.372 24.5977 19.5864 25.4818 17.6623 25.7414V28.105C20.2139 27.8348 22.5959 26.6988 24.4118 24.8861C26.2278 23.0734 27.368 20.6934 27.6427 18.1423H25.2614ZM7.69956 18.1423H5.33592C5.60612 20.6938 6.74213 23.0759 8.55484 24.8918C10.3675 26.7077 12.7476 27.848 15.2986 28.1227V25.7591C13.372 25.4986 11.5844 24.6119 10.2112 23.2356C8.83805 21.8592 7.95552 20.0695 7.69956 18.1423ZM16.4805 11.6423C15.4286 11.6423 14.4004 11.9542 13.5258 12.5385C12.6513 13.1229 11.9696 13.9535 11.5671 14.9253C11.1646 15.897 11.0593 16.9663 11.2645 17.998C11.4697 19.0296 11.9762 19.9772 12.7199 20.721C13.4637 21.4647 14.4113 21.9712 15.4429 22.1764C16.4746 22.3816 17.5439 22.2763 18.5156 21.8738C19.4874 21.4713 20.318 20.7896 20.9024 19.9151C21.4867 19.0405 21.7986 18.0123 21.7986 16.9604C21.7986 15.55 21.2383 14.1973 20.241 13.1999C19.2436 12.2026 17.8909 11.6423 16.4805 11.6423ZM29.4805 17.5514H23.5714V16.3695H29.4805V17.5514ZM17.0714 9.86954H15.8896V3.96045H17.0714V9.86954ZM9.38956 17.5514H3.48047V16.3695H9.38956V17.5514ZM17.0714 29.9604H15.8896V24.0514H17.0714V29.9604Z" fill="#F15642"/>
</svg>
