<svg width="49" height="34" viewBox="0 0 49 34" fill="none" xmlns="http://www.w3.org/2000/svg">
<path d="M21.0474 0.609869C19.4479 0.830559 16.8452 1.85125 15.2999 2.87194C12.5074 4.69263 9.90476 8.41677 9.38965 11.2306C9.19987 12.1685 9.11854 12.2788 8.35943 12.2788C5.43143 12.2788 2.28654 14.2099 0.985208 16.8306C0.280319 18.2375 0.171875 18.734 0.171875 20.665C0.171875 22.3478 0.334542 23.203 0.768319 24.1685C1.55454 25.9064 3.12699 27.6168 4.75365 28.4995C6.13632 29.2444 6.19054 29.2444 12.5888 29.3271C18.1465 29.4099 19.0141 29.3547 19.0141 28.9961C19.0141 28.665 18.0923 28.5823 12.7243 28.4995C6.78699 28.4168 6.3261 28.3892 5.26876 27.8099C3.77765 26.9823 2.39499 25.4926 1.66299 23.9478C-0.641458 18.9271 2.77454 13.3547 8.22388 13.2719L9.76921 13.2444L10.0945 11.865C10.8265 8.69263 13.4834 4.9409 16.1945 3.25814C17.523 2.45814 20.0985 1.63056 21.915 1.40987C26.0088 0.913317 31.0243 3.09263 33.5457 6.45815L34.5217 7.72711L36.9888 7.7547C40.5132 7.80987 42.167 8.49952 44.5257 10.8719C46.8301 13.2168 47.5621 15.0099 47.5621 18.2099C47.5621 21.2719 46.803 23.2306 44.7968 25.2444C42.1128 27.9478 40.2421 28.5271 34.2777 28.5547C30.6719 28.5547 30.1297 28.6099 30.1297 28.9961C30.1297 29.3823 30.6719 29.4099 35.091 29.3271C39.3474 29.2168 40.215 29.134 41.5163 28.6099C49.4328 25.4099 50.951 14.6788 44.2274 9.27194C42.2212 7.67194 40.215 6.9547 37.4497 6.89952L35.1452 6.84435L33.4101 5.02366C30.1568 1.57539 25.6834 -0.0246143 21.0474 0.609869Z" fill="#0389FF"/>
<path d="M21.2372 17.7678C18.2821 21.023 17.4417 22.2092 18.1737 22.2092C18.2821 22.2092 19.6648 20.8299 21.2101 19.1196L24.0297 16.0575L24.1652 24.4989C24.2466 29.7954 24.4092 32.9954 24.5719 33.0506C24.7346 33.0782 24.8701 30.0989 24.9243 24.6092C24.9515 19.9471 25.0328 16.1402 25.1141 16.1402C25.1683 16.1402 25.819 16.8023 26.5239 17.5747C29.8857 21.3265 30.8888 22.292 31.187 22.0989C31.5123 21.8782 30.5363 20.6368 26.6866 16.4437L24.5448 14.1265L21.2372 17.7678Z" fill="#0389FF"/>
</svg>
