<svg width="26" height="26" viewBox="0 0 26 26" fill="none" xmlns="http://www.w3.org/2000/svg">
<path d="M13.8784 15.5509L20.9087 8.52062L19.1667 6.71639L13.8784 12.0046L11.2032 9.39163L9.46117 11.1336L13.8784 15.5509ZM8.03023 20.4659C7.34587 20.4659 6.7598 20.222 6.27204 19.7342C5.78428 19.2465 5.54081 18.6608 5.54164 17.9773V3.04572C5.54164 2.36136 5.78552 1.7753 6.27328 1.28753C6.76105 0.799768 7.3467 0.556301 8.03023 0.557131H22.9618C23.6461 0.557131 24.2322 0.801013 24.72 1.28878C25.2077 1.77654 25.4512 2.36219 25.4504 3.04572V17.9773C25.4504 18.6616 25.2065 19.2477 24.7187 19.7355C24.231 20.2232 23.6453 20.4667 22.9618 20.4659H8.03023ZM3.05305 25.443C2.36868 25.443 1.78262 25.1992 1.29486 24.7114C0.807093 24.2236 0.563626 23.638 0.564455 22.9545V5.53431H3.05305V22.9545H20.4732V25.443H3.05305Z" fill="#0389FF"/>
</svg>
