<svg width="15" height="16" viewBox="0 0 15 16" fill="none" xmlns="http://www.w3.org/2000/svg">
<g opacity="0.7" clip-path="url(#clip0_34717_11404)">
<path d="M6.34406 1.04823C5.65698 1.36887 5.23329 1.80402 4.9241 2.4911C4.62637 3.15527 4.61492 4.27749 4.9012 5.11344C5.11877 5.73181 5.11877 5.74326 4.8783 6.23566C4.63782 6.72807 4.63782 6.72807 4.0309 6.72807C3.45834 6.72807 3.42398 6.71662 3.5385 6.49904C3.6072 6.38453 3.88203 6.0868 4.15687 5.85777C4.59201 5.49133 4.64927 5.41117 4.53476 5.22795C4.35154 4.93022 4.29428 4.95312 3.74462 5.43407C1.44291 7.51821 1.3055 11.3887 3.45834 13.7019C5.26764 15.6372 8.56561 16.0151 10.8215 14.5264C12.5163 13.4271 13.3866 11.7781 13.3866 9.7054C13.3866 8.02206 12.7339 6.47614 11.5773 5.43407C11.0276 4.94167 10.9704 4.93022 10.7872 5.22795C10.6612 5.42262 10.6955 5.49133 11.0391 5.74326C11.2452 5.90358 11.5315 6.18986 11.6689 6.38453L11.9094 6.72807H11.3025C10.6841 6.72807 10.6841 6.72807 10.4436 6.23566C10.2031 5.74326 10.2031 5.73181 10.4207 5.11344C10.8673 3.80799 10.5925 2.33078 9.76799 1.55209C8.90915 0.750501 7.43193 0.532927 6.34406 1.04823ZM8.72593 1.52919C10.707 2.5369 10.5352 4.90732 8.30223 7.25483L7.66096 7.93045L6.97388 7.19757C5.38215 5.50278 4.84394 3.8996 5.46231 2.66286C6.05778 1.43758 7.53499 0.933721 8.72593 1.52919ZM5.69134 6.59065C5.71424 6.67081 5.63408 6.72807 5.49667 6.72807C5.33635 6.72807 5.27909 6.67081 5.33635 6.5563C5.40506 6.36163 5.62263 6.38453 5.69134 6.59065ZM9.99702 6.5563C10.0428 6.67081 9.98557 6.72807 9.8367 6.72807C9.60768 6.72807 9.53897 6.60211 9.68783 6.46469C9.80235 6.33873 9.91686 6.37308 9.99702 6.5563ZM4.40879 7.49531C4.37444 7.67853 4.30573 8.19383 4.27138 8.64043L4.19122 9.47638H3.30947H2.42772L2.53078 8.82365C2.58804 8.45721 2.72546 7.94191 2.85142 7.67853L3.06899 7.18612H3.77897H4.4775L4.40879 7.49531ZM6.77921 7.8503C7.36322 8.44576 7.43193 8.56027 7.43193 8.99542V9.47638H6.05778C4.68362 9.47638 4.68362 9.47638 4.72943 9.213C4.76378 9.07558 4.80959 8.68624 4.85539 8.35415C4.96991 7.32354 5.06152 7.18612 5.63408 7.18612C6.08068 7.18612 6.18374 7.24338 6.77921 7.8503ZM10.3635 7.75868C10.4322 8.04497 10.5123 8.54882 10.5467 8.86946L10.6039 9.47638H9.25269H7.88998V8.99542C7.88998 8.56027 7.95869 8.44576 8.55416 7.83884C9.17253 7.20902 9.22978 7.17467 9.72219 7.20902C10.226 7.24338 10.2375 7.25483 10.3635 7.75868ZM12.4705 7.71288C12.5965 7.99916 12.7453 8.51447 12.7911 8.85801L12.8942 9.47638H12.0124H11.1307L11.0505 8.64043C11.0162 8.19383 10.9475 7.67853 10.9131 7.49531L10.8444 7.18612H11.5429H12.2529L12.4705 7.71288ZM4.27138 10.7589C4.30573 11.217 4.37444 11.7323 4.40879 11.904L4.4775 12.2247H3.77897C3.1377 12.2247 3.06899 12.2018 2.92013 11.904C2.75981 11.5949 2.58804 10.9879 2.46208 10.3009L2.40482 9.93443H3.29802H4.19122L4.27138 10.7589ZM7.43193 10.2207C7.43193 10.4268 7.48919 10.507 7.66096 10.507C7.83273 10.507 7.88998 10.4268 7.88998 10.2207V9.93443H9.25269H10.6268L10.5696 10.3581C10.5352 10.5986 10.4551 11.1139 10.3864 11.5033L10.2719 12.2247H9.08092C7.97014 12.2247 7.88998 12.2132 7.88998 11.9957C7.88998 11.8468 7.80982 11.7666 7.66096 11.7666C7.51209 11.7666 7.43193 11.8468 7.43193 11.9957C7.43193 12.2132 7.35177 12.2247 6.241 12.2247H5.05007L4.93555 11.5033C4.86684 11.1139 4.78669 10.5986 4.75233 10.3581L4.69508 9.93443H6.06923H7.43193V10.2207ZM12.8598 10.3009C12.7339 10.9879 12.5621 11.5949 12.4018 11.904C12.2529 12.2018 12.1842 12.2247 11.5429 12.2247H10.8444L10.9131 11.904C10.9475 11.7323 11.0162 11.217 11.0505 10.7589L11.1307 9.93443H12.0239H12.9285L12.8598 10.3009ZM4.86684 13.1637C4.98136 13.4271 5.19893 13.8279 5.3478 14.034C5.49667 14.2516 5.58828 14.4462 5.56537 14.4691C5.43941 14.6066 3.74462 13.3011 3.52705 12.9003C3.42398 12.7056 3.46979 12.6827 4.0309 12.6827C4.64927 12.6827 4.64927 12.6827 4.86684 13.1637ZM7.43193 13.7706C7.43193 15.0073 7.34032 15.099 6.61889 14.5722C6.13794 14.2058 5.89746 13.9195 5.53102 13.2209L5.25619 12.6827H6.34406H7.43193V13.7706ZM9.7909 13.2209C9.42446 13.9195 9.18398 14.2058 8.70302 14.5722C7.98159 15.099 7.88998 15.0073 7.88998 13.7706V12.6827H8.97786H10.0657L9.7909 13.2209ZM11.7949 12.9003C11.5773 13.3011 9.88251 14.6066 9.75654 14.4691C9.73364 14.4462 9.82525 14.2516 9.97412 14.034C10.123 13.8279 10.3406 13.4271 10.4551 13.1637C10.6726 12.6827 10.6726 12.6827 11.291 12.6827C11.8521 12.6827 11.8979 12.7056 11.7949 12.9003Z" fill="#FBFDFF"/>
<path d="M6.65332 1.87283C6.00059 2.20492 5.6685 2.75458 5.6227 3.59052C5.57689 4.20889 5.61125 4.39211 5.86318 4.80436C6.64186 6.14416 8.66874 6.15561 9.44743 4.82726C9.98564 3.92261 9.72226 2.60571 8.89777 2.0217C8.40536 1.66671 7.21443 1.58655 6.65332 1.87283ZM8.3023 2.36523C9.14969 2.75458 9.03518 2.83474 7.66103 2.83474C6.75638 2.83474 6.41284 2.80038 6.47009 2.70877C6.5617 2.54845 7.42055 2.14766 7.66103 2.14766C7.75264 2.14766 8.05037 2.25072 8.3023 2.36523ZM9.20695 3.52181C9.2413 3.64778 9.2413 3.8539 9.20695 3.97987C9.13824 4.19744 9.03518 4.20889 7.66103 4.20889C6.28687 4.20889 6.18381 4.19744 6.1151 3.97987C6.08075 3.8539 6.08075 3.64778 6.1151 3.52181C6.18381 3.30424 6.28687 3.29279 7.66103 3.29279C9.03518 3.29279 9.13824 3.30424 9.20695 3.52181ZM8.63439 4.89597C8.3481 5.2166 7.75264 5.35402 7.27168 5.22806C7.06556 5.1708 6.80218 5.02193 6.68767 4.89597C6.48155 4.66694 6.493 4.66694 7.66103 4.66694C8.82906 4.66694 8.84051 4.66694 8.63439 4.89597Z" fill="#FBFDFF"/>
<path d="M6.40112 11.0796C6.40112 11.2513 6.48128 11.3086 6.68741 11.3086C6.89353 11.3086 6.97369 11.2513 6.97369 11.0796C6.97369 10.9078 6.89353 10.8505 6.68741 10.8505C6.48128 10.8505 6.40112 10.9078 6.40112 11.0796Z" fill="#FBFDFF"/>
<path d="M7.37465 10.9653C7.32885 11.0454 7.3403 11.1485 7.409 11.2172C7.56932 11.3775 7.94722 11.2859 7.94722 11.0798C7.94722 10.8736 7.48916 10.782 7.37465 10.9653Z" fill="#FBFDFF"/>
<path d="M8.3479 11.0796C8.3479 11.2513 8.42806 11.3086 8.63418 11.3086C8.84031 11.3086 8.92046 11.2513 8.92046 11.0796C8.92046 10.9078 8.84031 10.8505 8.63418 10.8505C8.42806 10.8505 8.3479 10.9078 8.3479 11.0796Z" fill="#FBFDFF"/>
</g>
<defs>
<clipPath id="clip0_34717_11404">
<rect width="14.6576" height="14.6576" fill="white" transform="translate(0.332031 0.773438)"/>
</clipPath>
</defs>
</svg>
