<svg width="33" height="32" viewBox="0 0 33 32" fill="none" xmlns="http://www.w3.org/2000/svg">
<g clip-path="url(#clip0_2_12022)">
<circle cx="16.3418" cy="15.9912" r="15.5" stroke="white"/>
<path d="M15.8411 12.6577C15.0897 12.6577 14.369 12.9562 13.8377 13.4876C13.3063 14.0189 13.0078 14.7396 13.0078 15.491C13.0078 16.2425 13.3063 16.9632 13.8377 17.4945C14.369 18.0259 15.0897 18.3244 15.8411 18.3244C16.5926 18.3244 17.3133 18.0259 17.8446 17.4945C18.376 16.9632 18.6745 16.2425 18.6745 15.491C18.6745 14.7396 18.376 14.0189 17.8446 13.4876C17.3133 12.9562 16.5926 12.6577 15.8411 12.6577Z" fill="white"/>
<path fill-rule="evenodd" clip-rule="evenodd" d="M12.4418 6.99121C11.0892 6.99121 9.79199 7.52853 8.83555 8.48497C7.87912 9.4414 7.3418 10.7386 7.3418 12.0912L7.3418 18.8912C7.3418 20.2438 7.87912 21.541 8.83555 22.4975C9.79199 23.4539 11.0892 23.9912 12.4418 23.9912H19.2418C20.5944 23.9912 21.8916 23.4539 22.848 22.4975C23.8045 21.541 24.3418 20.2438 24.3418 18.8912V12.0912C24.3418 10.7386 23.8045 9.4414 22.848 8.48497C21.8916 7.52853 20.5944 6.99121 19.2418 6.99121H12.4418ZM11.8751 15.4912C11.8751 14.4392 12.293 13.4302 13.0369 12.6864C13.7808 11.9425 14.7898 11.5245 15.8418 11.5245C16.8938 11.5245 17.9028 11.9425 18.6467 12.6864C19.3905 13.4302 19.8085 14.4392 19.8085 15.4912C19.8085 16.5432 19.3905 17.5522 18.6467 18.2961C17.9028 19.04 16.8938 19.4579 15.8418 19.4579C14.7898 19.4579 13.7808 19.04 13.0369 18.2961C12.293 17.5522 11.8751 16.5432 11.8751 15.4912ZM19.8085 11.5245H20.9418V10.3912H19.8085V11.5245Z" fill="white"/>
</g>
<defs>
<clipPath id="clip0_2_12022">
<rect width="32" height="32" fill="white" transform="translate(0.341797 -0.00878906)"/>
</clipPath>
</defs>
</svg>
