<svg width="33" height="33" viewBox="0 0 33 33" fill="none" xmlns="http://www.w3.org/2000/svg">
<path d="M28.2157 16.4453C29.3639 15.6116 30.2331 14.5235 30.7645 13.3095C31.1306 14.2992 31.3223 15.4083 31.3223 16.6468C31.3223 19.6035 30.1869 21.6748 29.0225 23.0091C28.4447 23.6713 27.8648 24.147 27.423 24.4605C27.336 24.5222 27.2542 24.5776 27.1786 24.6273V26.6142C27.1786 28.1921 25.7871 29.4713 24.0708 29.4713H23.0349C21.8906 29.4713 20.963 28.6184 20.963 27.5666H16.8193C16.8193 28.6184 15.8918 29.4713 14.7475 29.4713H13.7116C11.9952 29.4713 10.6038 28.1921 10.6038 26.6142V26.2079C10.4249 26.1555 10.2246 26.0908 10.0084 26.0104C9.17977 25.703 8.10009 25.1637 7.10386 24.2353C5.87712 23.0921 5.18993 21.6614 4.84555 20.7637C4.73282 20.4698 4.50697 20.2849 4.28719 20.2277C3.12134 19.9248 2.31641 18.9466 2.31641 17.8328V16.3205C2.31641 15.2235 3.10725 14.2595 4.25443 13.9579C4.46858 13.9016 4.70089 13.7093 4.81522 13.3915C5.09423 12.6159 5.63235 11.4698 6.61855 10.5507C7.42531 9.79884 8.296 9.24315 8.95694 8.87724C9.15723 8.76635 9.34021 8.67181 9.49881 8.59358V5.01726C9.49881 4.34394 9.97896 3.86869 10.495 3.67615C11.0067 3.48524 11.6928 3.51716 12.2059 3.96286C12.7296 4.4177 13.4181 4.96175 14.1544 5.40482C14.9095 5.85918 15.618 6.14768 16.1959 6.20155L16.2069 6.20257C15.1129 7.69553 14.6091 9.52355 14.8434 11.3542C15.094 13.3127 16.7427 14.4904 18.1268 15.0174L23.0765 16.9018C24.4607 17.4288 26.5324 17.6675 28.2157 16.4453ZM10.0858 15.1847C10.944 15.1847 11.6397 14.5451 11.6397 13.7561C11.6397 12.9671 10.944 12.3275 10.0858 12.3275C9.22765 12.3275 8.53195 12.9671 8.53195 13.7561C8.53195 14.5451 9.22765 15.1847 10.0858 15.1847Z" fill="#8048F8"/>
<path d="M17.297 8.36426C17.8945 6.97643 19.0791 5.80407 20.6975 5.18763C23.8688 3.97967 27.5048 5.36397 28.8188 8.27955C29.9078 10.696 29.06 13.4058 26.9322 14.9506C26.0697 15.5768 24.8852 15.5287 23.8698 15.1421L18.9201 13.2577C17.9048 12.8711 17.03 12.1352 16.9016 11.1317C16.8389 10.6416 16.8468 10.1518 16.9202 9.67363L17.297 8.36426ZM17.297 8.36426L17.0152 9.19993C17.0588 9.02399 17.1115 8.8502 17.1729 8.67919C17.2109 8.5731 17.2523 8.46807 17.297 8.36426Z" fill="#8048F8"/>
</svg>
