<svg width="33" height="33" viewBox="0 0 33 33" fill="none" xmlns="http://www.w3.org/2000/svg">
<path d="M21.0957 18.4924C19.9223 18.4924 18.7752 18.8123 17.7995 19.4117C16.8239 20.011 16.0634 20.8629 15.6143 21.8596C15.1653 22.8563 15.0478 23.953 15.2767 25.0111C15.5057 26.0692 16.0707 27.0411 16.9005 27.8039C17.7302 28.5668 18.7874 29.0863 19.9383 29.2967C21.0892 29.5072 22.2821 29.3992 23.3662 28.9863C24.4503 28.5735 25.3769 27.8744 26.0289 26.9774C26.6808 26.0804 27.0288 25.0258 27.0288 23.947C27.0288 23.2307 26.8753 22.5214 26.5771 21.8596C26.279 21.1978 25.8419 20.5965 25.291 20.09C24.7401 19.5835 24.086 19.1818 23.3662 18.9076C22.6464 18.6335 21.8749 18.4924 21.0957 18.4924ZM23.0734 22.7349H20.4365V23.3409H22.4142C22.589 23.3409 22.7567 23.4048 22.8803 23.5184C23.004 23.6321 23.0734 23.7862 23.0734 23.947V25.7652C23.0734 25.9259 23.004 26.0801 22.8803 26.1937C22.7567 26.3074 22.589 26.3712 22.4142 26.3712H21.755V26.9773H20.4365V26.3712H19.1181V25.1591H21.755V24.553H19.7773C19.6025 24.553 19.4348 24.4892 19.3111 24.3755C19.1875 24.2619 19.1181 24.1077 19.1181 23.947V22.1288C19.1181 21.9681 19.1875 21.8139 19.3111 21.7003C19.4348 21.5866 19.6025 21.5227 19.7773 21.5227H20.4365V20.9167H21.755V21.5227H23.0734V22.7349ZM14.5035 10.0076C13.8042 10.0076 13.1334 9.75218 12.6389 9.29755C12.1444 8.84291 11.8666 8.2263 11.8666 7.58335V6.37123H17.1404V7.58335C17.1404 8.2263 16.8626 8.84291 16.3681 9.29755C15.8736 9.75218 15.2028 10.0076 14.5035 10.0076ZM14.5035 19.7046C15.0305 19.7026 15.5457 19.8485 15.9802 20.1227C15.167 21.0426 14.665 22.1615 14.5365 23.3409H11.8666V22.1288C11.8666 21.4859 12.1444 20.8692 12.6389 20.4146C13.1334 19.96 13.8042 19.7046 14.5035 19.7046ZM14.8067 25.7652C14.9499 26.188 15.1445 26.5946 15.3869 26.9773H5.93359V25.7652H7.25204V22.7349C7.24523 21.3913 7.68295 20.0777 8.50712 18.9682C9.33129 17.8587 10.5029 17.0058 11.8666 16.5227V13.1894C10.5029 12.7063 9.33129 11.8535 8.50712 10.744C7.68295 9.63448 7.24523 8.32081 7.25204 6.97729V3.94698H5.93359V2.73486H23.0734V3.94698H21.755V6.97729C21.7618 8.32081 21.324 9.63448 20.4999 10.744C19.6757 11.8535 18.5041 12.7063 17.1404 13.1894V16.5227C18.0793 16.8616 18.9304 17.3778 19.6389 18.0379C18.6432 18.2419 17.7131 18.6569 16.9229 19.25C16.4078 18.8864 15.8033 18.6449 15.1627 18.547V11.1652C16.0837 11.022 16.9199 10.5839 17.5232 9.92833C18.1264 9.27276 18.4579 8.44206 18.4588 7.58335V5.76517C18.4588 5.60443 18.3894 5.45028 18.2658 5.33662C18.1421 5.22296 17.9745 5.15911 17.7996 5.15911H11.2074C11.0325 5.15911 10.8649 5.22296 10.7412 5.33662C10.6176 5.45028 10.5482 5.60443 10.5482 5.76517V7.58335C10.5491 8.44206 10.8806 9.27276 11.4839 9.92833C12.0871 10.5839 12.9233 11.022 13.8443 11.1652V18.547C12.9233 18.6901 12.0871 19.1282 11.4839 19.7838C10.8806 20.4394 10.5491 21.2701 10.5482 22.1288V23.947C10.5482 24.1077 10.6176 24.2619 10.7412 24.3755C10.8649 24.4892 11.0325 24.553 11.2074 24.553H14.5365C14.582 24.9644 14.6725 25.3705 14.8067 25.7652Z" fill="#23A566"/>
</svg>
