<svg width="33" height="32" viewBox="0 0 33 32" fill="none" xmlns="http://www.w3.org/2000/svg">
<g clip-path="url(#clip0_2_12029)">
<circle cx="16.3418" cy="15.9912" r="15.5" stroke="white"/>
<path d="M25.3418 10.6165C24.7161 10.9009 24.0416 11.0878 23.3428 11.1772C24.0579 10.7465 24.6104 10.0639 24.8705 9.24312C24.196 9.64943 23.4484 9.93385 22.6602 10.0964C22.0182 9.39752 21.1162 8.99121 20.0923 8.99121C18.1826 8.99121 16.6224 10.5514 16.6224 12.4773C16.6224 12.7536 16.6549 13.0218 16.7118 13.2737C13.8189 13.1274 11.2428 11.7379 9.52822 9.63318C9.22755 10.1451 9.0569 10.7465 9.0569 11.3803C9.0569 12.5911 9.66637 13.6638 10.609 14.2732C10.032 14.2732 9.49572 14.1107 9.0244 13.8669V13.8913C9.0244 15.5816 10.2271 16.9955 11.8198 17.3124C11.3084 17.4524 10.7716 17.4718 10.2515 17.3693C10.4722 18.0621 10.9044 18.6682 11.4875 19.1026C12.0705 19.5369 12.775 19.7777 13.5019 19.7909C12.2697 20.7664 10.7423 21.2937 9.17067 21.2861C8.89438 21.2861 8.61809 21.2699 8.3418 21.2374C9.88577 22.2288 11.7223 22.8057 13.6888 22.8057C20.0923 22.8057 23.6109 17.4912 23.6109 12.8837C23.6109 12.7293 23.6109 12.583 23.6028 12.4286C24.2854 11.941 24.8705 11.3234 25.3418 10.6165Z" fill="white"/>
</g>
<defs>
<clipPath id="clip0_2_12029">
<rect width="32" height="32" fill="white" transform="translate(0.341797 -0.00878906)"/>
</clipPath>
</defs>
</svg>
